<svg id="visual" viewBox="0 0 1920 1080" width="1920" height="1080" xmlns="http://www.w3.org/2000/svg" xmlns:xlink="http://www.w3.org/1999/xlink" version="1.1"><rect x="0" y="0" width="1920" height="1080" fill="#ffffff"></rect><defs><linearGradient id="grad1_0" x1="43.8%" y1="0%" x2="100%" y2="100%"><stop offset="14.444444444444446%" stop-color="#ffffff" stop-opacity="1"></stop><stop offset="85.55555555555554%" stop-color="#ffffff" stop-opacity="1"></stop></linearGradient></defs><defs><linearGradient id="grad2_0" x1="0%" y1="0%" x2="56.3%" y2="100%"><stop offset="14.444444444444446%" stop-color="#ffffff" stop-opacity="1"></stop><stop offset="85.55555555555554%" stop-color="#ffffff" stop-opacity="1"></stop></linearGradient></defs><g transform="translate(1920, 0)"><path d="M0 378C-70.6 370.7 -141.3 363.4 -189 327.4C-236.7 291.3 -261.6 226.4 -289.3 167C-316.9 107.6 -347.5 53.8 -378 0L0 0Z" fill="#5a43cb"></path></g><g transform="translate(0, 1080)"><path d="M0 -378C68.9 -369.7 137.8 -361.4 189 -327.4C240.2 -293.3 273.7 -233.4 302.2 -174.5C330.8 -115.6 354.4 -57.8 378 0L0 0Z" fill="#5a43cb"></path></g></svg>