<svg id="visual" viewBox="0 0 1920 250" width="1920" height="250" xmlns="http://www.w3.org/2000/svg" xmlns:xlink="http://www.w3.org/1999/xlink" version="1.1"><path d="M0 180L53.3 154.3C106.7 128.7 213.3 77.3 320 65.5C426.7 53.7 533.3 81.3 640 90C746.7 98.7 853.3 88.3 960 99.5C1066.7 110.7 1173.3 143.3 1280 155C1386.7 166.7 1493.3 157.3 1600 157.2C1706.7 157 1813.3 166 1866.7 170.5L1920 175L1920 251L1866.7 251C1813.3 251 1706.7 251 1600 251C1493.3 251 1386.7 251 1280 251C1173.3 251 1066.7 251 960 251C853.3 251 746.7 251 640 251C533.3 251 426.7 251 320 251C213.3 251 106.7 251 53.3 251L0 251Z" fill="#5a43cb" stroke-linecap="round" stroke-linejoin="miter"></path></svg>