<svg id="visual" viewBox="0 0 1920 350" width="1920" height="350" xmlns="http://www.w3.org/2000/svg" xmlns:xlink="http://www.w3.org/1999/xlink" version="1.1"><path d="M0 142L26.7 128.3C53.3 114.7 106.7 87.3 160 84.2C213.3 81 266.7 102 320 103.2C373.3 104.3 426.7 85.7 480 75C533.3 64.3 586.7 61.7 640 64.3C693.3 67 746.7 75 800 91.5C853.3 108 906.7 133 960 145.3C1013.3 157.7 1066.7 157.3 1120 151C1173.3 144.7 1226.7 132.3 1280 127.8C1333.3 123.3 1386.7 126.7 1440 130C1493.3 133.3 1546.7 136.7 1600 125C1653.3 113.3 1706.7 86.7 1760 73.3C1813.3 60 1866.7 60 1893.3 60L1920 60L1920 351L1893.3 351C1866.7 351 1813.3 351 1760 351C1706.7 351 1653.3 351 1600 351C1546.7 351 1493.3 351 1440 351C1386.7 351 1333.3 351 1280 351C1226.7 351 1173.3 351 1120 351C1066.7 351 1013.3 351 960 351C906.7 351 853.3 351 800 351C746.7 351 693.3 351 640 351C586.7 351 533.3 351 480 351C426.7 351 373.3 351 320 351C266.7 351 213.3 351 160 351C106.7 351 53.3 351 26.7 351L0 351Z" fill="#705dd0"></path><path d="M0 201L26.7 202.7C53.3 204.3 106.7 207.7 160 204.8C213.3 202 266.7 193 320 189.3C373.3 185.7 426.7 187.3 480 185C533.3 182.7 586.7 176.3 640 177.8C693.3 179.3 746.7 188.7 800 183.7C853.3 178.7 906.7 159.3 960 159.8C1013.3 160.3 1066.7 180.7 1120 196.7C1173.3 212.7 1226.7 224.3 1280 221.8C1333.3 219.3 1386.7 202.7 1440 197.5C1493.3 192.3 1546.7 198.7 1600 194.2C1653.3 189.7 1706.7 174.3 1760 175.2C1813.3 176 1866.7 193 1893.3 201.5L1920 210L1920 351L1893.3 351C1866.7 351 1813.3 351 1760 351C1706.7 351 1653.3 351 1600 351C1546.7 351 1493.3 351 1440 351C1386.7 351 1333.3 351 1280 351C1226.7 351 1173.3 351 1120 351C1066.7 351 1013.3 351 960 351C906.7 351 853.3 351 800 351C746.7 351 693.3 351 640 351C586.7 351 533.3 351 480 351C426.7 351 373.3 351 320 351C266.7 351 213.3 351 160 351C106.7 351 53.3 351 26.7 351L0 351Z" fill="#6550ce"></path><path d="M0 230L26.7 235.2C53.3 240.3 106.7 250.7 160 254.2C213.3 257.7 266.7 254.3 320 249.8C373.3 245.3 426.7 239.7 480 237C533.3 234.3 586.7 234.7 640 244.5C693.3 254.3 746.7 273.7 800 279.2C853.3 284.7 906.7 276.3 960 265.3C1013.3 254.3 1066.7 240.7 1120 236C1173.3 231.3 1226.7 235.7 1280 236.2C1333.3 236.7 1386.7 233.3 1440 236.3C1493.3 239.3 1546.7 248.7 1600 260.8C1653.3 273 1706.7 288 1760 295C1813.3 302 1866.7 301 1893.3 300.5L1920 300L1920 351L1893.3 351C1866.7 351 1813.3 351 1760 351C1706.7 351 1653.3 351 1600 351C1546.7 351 1493.3 351 1440 351C1386.7 351 1333.3 351 1280 351C1226.7 351 1173.3 351 1120 351C1066.7 351 1013.3 351 960 351C906.7 351 853.3 351 800 351C746.7 351 693.3 351 640 351C586.7 351 533.3 351 480 351C426.7 351 373.3 351 320 351C266.7 351 213.3 351 160 351C106.7 351 53.3 351 26.7 351L0 351Z" fill="#5a43cb"></path></svg>