<svg id="visual" viewBox="0 0 1920 1080" width="1920" height="1080" xmlns="http://www.w3.org/2000/svg" xmlns:xlink="http://www.w3.org/1999/xlink" version="1.1"><path d="M0 253L40 264.8C80 276.7 160 300.3 240 301.5C320 302.7 400 281.3 480 254.3C560 227.3 640 194.7 720 175.5C800 156.3 880 150.7 960 181.7C1040 212.7 1120 280.3 1200 311C1280 341.7 1360 335.3 1440 314.2C1520 293 1600 257 1680 243.7C1760 230.3 1840 239.7 1880 244.3L1920 249L1920 0L1880 0C1840 0 1760 0 1680 0C1600 0 1520 0 1440 0C1360 0 1280 0 1200 0C1120 0 1040 0 960 0C880 0 800 0 720 0C640 0 560 0 480 0C400 0 320 0 240 0C160 0 80 0 40 0L0 0Z" fill="#5a43cb" stroke-linecap="round" stroke-linejoin="miter"></path></svg>