<svg id="visual" viewBox="0 0 1920 1080" width="1920" height="1080" xmlns="http://www.w3.org/2000/svg" xmlns:xlink="http://www.w3.org/1999/xlink" version="1.1"><path d="M0 388L35.5 378.2C71 368.3 142 348.7 213.2 337.5C284.3 326.3 355.7 323.7 426.8 326.2C498 328.7 569 336.3 640 333.5C711 330.7 782 317.3 853.2 330.3C924.3 343.3 995.7 382.7 1066.8 394C1138 405.3 1209 388.7 1280 369.3C1351 350 1422 328 1493.2 336.8C1564.3 345.7 1635.7 385.3 1706.8 398C1778 410.7 1849 396.3 1884.5 389.2L1920 382L1920 0L1884.5 0C1849 0 1778 0 1706.8 0C1635.7 0 1564.3 0 1493.2 0C1422 0 1351 0 1280 0C1209 0 1138 0 1066.8 0C995.7 0 924.3 0 853.2 0C782 0 711 0 640 0C569 0 498 0 426.8 0C355.7 0 284.3 0 213.2 0C142 0 71 0 35.5 0L0 0Z" fill="#715df2"></path><path d="M0 185L35.5 197.7C71 210.3 142 235.7 213.2 250.5C284.3 265.3 355.7 269.7 426.8 277.3C498 285 569 296 640 284.5C711 273 782 239 853.2 233C924.3 227 995.7 249 1066.8 256.8C1138 264.7 1209 258.3 1280 259C1351 259.7 1422 267.3 1493.2 267.8C1564.3 268.3 1635.7 261.7 1706.8 266.2C1778 270.7 1849 286.3 1884.5 294.2L1920 302L1920 0L1884.5 0C1849 0 1778 0 1706.8 0C1635.7 0 1564.3 0 1493.2 0C1422 0 1351 0 1280 0C1209 0 1138 0 1066.8 0C995.7 0 924.3 0 853.2 0C782 0 711 0 640 0C569 0 498 0 426.8 0C355.7 0 284.3 0 213.2 0C142 0 71 0 35.5 0L0 0Z" fill="#6650de"></path><path d="M0 78L35.5 82.7C71 87.3 142 96.7 213.2 111.5C284.3 126.3 355.7 146.7 426.8 157C498 167.3 569 167.7 640 169.7C711 171.7 782 175.3 853.2 172.2C924.3 169 995.7 159 1066.8 145C1138 131 1209 113 1280 109.3C1351 105.7 1422 116.3 1493.2 133.3C1564.3 150.3 1635.7 173.7 1706.8 165.3C1778 157 1849 117 1884.5 97L1920 77L1920 0L1884.5 0C1849 0 1778 0 1706.8 0C1635.7 0 1564.3 0 1493.2 0C1422 0 1351 0 1280 0C1209 0 1138 0 1066.8 0C995.7 0 924.3 0 853.2 0C782 0 711 0 640 0C569 0 498 0 426.8 0C355.7 0 284.3 0 213.2 0C142 0 71 0 35.5 0L0 0Z" fill="#5a43cb"></path></svg>